<?xml version="1.0" encoding="UTF-8"?>
<svg width="220px" height="30px" viewBox="0 0 220 30" version="1.1" xmlns="http://www.w3.org/2000/svg" xmlns:xlink="http://www.w3.org/1999/xlink">
    <!-- Generator: Sketch 48.1 (47250) - http://www.bohemiancoding.com/sketch -->
    <title>gen_logoHeader</title>
    <desc>Created with Sketch.</desc>
    <defs></defs>
    <g id="BRAND-HEADER" stroke="none" stroke-width="1" fill="none" fill-rule="evenodd">
        <g id="gen_logoHeader" fill="#FB1B26" fill-rule="nonzero">
            <g id="weddingwire_india-logo">
                <g id="Text" transform="translate(34.823126, 6.925054)">
                    <polygon id="Shape" points="0.0790474211 0.35614561 2.84570716 0.35614561 6.40284111 11.2779443 10.0390225 0.277002141 12.2523503 0.277002141 15.8094842 11.2779443 19.3666182 0.35614561 22.0542305 0.35614561 16.9161481 15.2351178 14.6237729 15.2351178 11.0666389 4.62989293 7.43045758 15.2351178 5.21712979 15.2351178"></polygon>
                    <polygon id="Shape" points="24.1885108 0.35614561 35.0970549 0.35614561 35.0970549 2.65130621 26.7970757 2.65130621 26.7970757 6.52933619 34.2275333 6.52933619 34.2275333 8.82449679 26.7970757 8.82449679 26.7970757 12.7816702 35.2551498 12.7816702 35.2551498 15.0768308 24.1885108 15.0768308"></polygon>
                    <path d="M38.1008569,0.35614561 L43.6341764,0.35614561 C48.2979743,0.35614561 51.4598711,3.52188437 51.4598711,7.71648822 L51.4598711,7.79563169 C51.4598711,11.9110921 48.2189268,15.1559743 43.6341764,15.1559743 L38.1008569,15.1559743 L38.1008569,0.35614561 Z M40.7094218,2.73044968 L40.7094218,12.7816702 L43.6341764,12.7816702 C46.7170258,12.7816702 48.7722588,10.72394 48.7722588,7.79563169 L48.7722588,7.71648822 C48.7722588,4.78817987 46.7170258,2.73044968 43.6341764,2.73044968 L40.7094218,2.73044968 Z" id="Shape"></path>
                    <path d="M54.2265308,0.35614561 L59.7598503,0.35614561 C64.4236482,0.35614561 67.585545,3.52188437 67.585545,7.71648822 L67.585545,7.79563169 C67.585545,11.9110921 64.3446007,15.1559743 59.7598503,15.1559743 L54.2265308,15.1559743 L54.2265308,0.35614561 Z M56.8350957,2.73044968 L56.8350957,12.7816702 L59.7598503,12.7816702 C62.8426997,12.7816702 64.8979327,10.72394 64.8979327,7.79563169 L64.8979327,7.71648822 C64.8979327,4.78817987 62.8426997,2.73044968 59.7598503,2.73044968 L56.8350957,2.73044968 Z" id="Shape"></path>
                    <polygon id="Shape" points="70.4312522 0.35614561 73.0398171 0.35614561 73.0398171 15.1559743 70.4312522 15.1559743"></polygon>
                    <polygon id="Shape" points="76.6759984 0.35614561 79.0474211 0.35614561 86.9521632 10.5656531 86.9521632 0.35614561 89.4816806 0.35614561 89.4816806 15.1559743 87.3474003 15.1559743 79.2055159 4.62989293 79.2055159 15.1559743 76.6759984 15.1559743"></polygon>
                    <path d="M92.3273878,7.79563169 C92.3273878,3.60102784 95.4892846,0.118715203 99.9159402,0.118715203 C102.524505,0.118715203 104.026406,0.831006424 105.607355,2.09730193 L103.947359,4.07588865 C102.840695,3.12616702 101.654983,2.49301927 99.8368928,2.49301927 C97.1492805,2.49301927 95.0940475,4.86732334 95.0940475,7.71648822 L95.0940475,7.79563169 C95.0940475,10.8030835 97.0702331,13.0982441 100.074035,13.0982441 C101.496889,13.0982441 102.761647,12.6233833 103.631169,11.9902355 L103.631169,9.22021413 L99.8368928,9.22021413 L99.8368928,6.92505353 L106.081639,6.92505353 L106.081639,13.0982441 C104.658785,14.3645396 102.524505,15.3934047 99.9159402,15.3934047 C95.4102372,15.3934047 92.3273878,12.069379 92.3273878,7.79563169 Z" id="Shape"></path>
                    <polygon id="Shape" points="107.58354 0.35614561 109.401631 0.35614561 113.591144 12.6233833 117.622563 0.277002141 118.966369 0.277002141 122.997787 12.6233833 127.266348 0.35614561 129.005391 0.35614561 123.788261 15.2351178 122.365408 15.2351178 118.333989 3.28445396 114.223523 15.2351178 112.80067 15.2351178"></polygon>
                    <polygon id="Shape" points="131.534909 0.35614561 133.194904 0.35614561 133.194904 15.1559743 131.534909 15.1559743"></polygon>
                    <path d="M137.147276,0.35614561 L143.471069,0.35614561 C145.28916,0.35614561 146.712013,0.910149893 147.660583,1.85987152 C148.372009,2.57216274 148.767246,3.60102784 148.767246,4.78817987 L148.767246,4.86732334 C148.767246,7.32077088 147.107251,8.74535332 144.735828,9.14107066 L149.241531,15.1559743 L147.186298,15.1559743 L142.917737,9.45764454 L138.728224,9.45764454 L138.728224,15.1559743 L137.068228,15.1559743 L137.068228,0.35614561 L137.147276,0.35614561 Z M143.392022,7.87477516 C145.60535,7.87477516 147.186298,6.7667666 147.186298,4.86732334 L147.186298,4.78817987 C147.186298,2.96788009 145.763444,1.85987152 143.392022,1.85987152 L138.807271,1.85987152 L138.807271,7.87477516 L143.392022,7.87477516 Z" id="Shape"></path>
                    <polygon id="Shape" points="152.087238 0.35614561 162.75864 0.35614561 162.75864 1.85987152 153.747234 1.85987152 153.747234 6.92505353 161.810071 6.92505353 161.810071 8.42877944 153.747234 8.42877944 153.747234 13.5731049 162.837687 13.5731049 162.837687 15.0768308 152.087238 15.0768308"></polygon>
                </g>
                <g id="Icon">
                    <path d="M14.7998287,0 C6.64805139,0 0,6.64805139 0,14.7998287 C0,22.951606 6.64805139,29.5996574 14.7998287,29.5996574 C22.951606,29.5996574 29.5996574,22.951606 29.5996574,14.7998287 C29.5996574,6.64805139 22.951606,0 14.7998287,0 Z M14.7998287,28.6499358 C7.12291221,28.6499358 0.949721627,22.4767452 0.949721627,14.7998287 C0.949721627,7.12291221 7.12291221,0.949721627 14.7998287,0.949721627 C22.4767452,0.949721627 28.6499358,7.12291221 28.6499358,14.7998287 C28.6499358,22.4767452 22.3976017,28.6499358 14.7998287,28.6499358 Z" id="Shape"></path>
                    <path d="M20.1815846,7.28119914 C21.3687366,7.28119914 22.3184582,8.23092077 22.3184582,9.41807281 C22.3184582,10.6052248 21.3687366,11.5549465 20.1815846,11.5549465 L19.8650107,11.5549465 C16.8575589,14.9581156 15.195546,19.6275803 15.195546,24.6927623 L14.3249679,24.6927623 C14.3249679,19.7067238 12.5838116,14.9581156 9.65550321,11.5549465 L9.33892934,11.5549465 C8.1517773,11.5549465 7.20205567,10.6052248 7.20205567,9.41807281 C7.20205567,8.23092077 8.1517773,7.28119914 9.33892934,7.28119914 C10.5260814,7.28119914 11.475803,8.23092077 11.475803,9.41807281 C11.475803,10.130364 11.0800857,10.7635118 10.5260814,11.1592291 C12.2672377,13.2169593 13.5335332,15.6704069 14.3249679,18.3612848 L14.3249679,14.1666809 L15.195546,14.1666809 L15.195546,18.3612848 C15.9869807,15.6704069 17.2532762,13.2169593 18.9944325,11.1592291 C18.4404283,10.7635118 18.0447109,10.130364 18.0447109,9.41807281 C18.0447109,8.23092077 18.9944325,7.28119914 20.1815846,7.28119914 Z M14.7998287,9.1806424 C13.619666,9.1806424 12.662955,8.22393145 12.662955,7.04376874 C12.662955,5.863606 13.619666,4.90689507 14.7998287,4.90689507 C15.9799914,4.90689507 16.9367024,5.863606 16.9367024,7.04376874 C16.9367024,8.22393145 15.9799914,9.1806424 14.7998287,9.1806424 Z M14.7998287,13.2961028 C13.8382147,13.2961028 13.0586724,12.5165605 13.0586724,11.5549465 C13.0586724,10.5933324 13.8382147,9.81379015 14.7998287,9.81379015 C15.7614427,9.81379015 16.540985,10.5933324 16.540985,11.5549465 C16.540985,12.5165605 15.7614427,13.2961028 14.7998287,13.2961028 Z" id="Combined-Shape"></path>
                </g>
                <path d="M202.394914,20.4750705 C202.590111,20.6779494 202.687709,20.9378839 202.687709,21.254882 C202.687709,21.5718801 202.590111,21.8349847 202.394914,22.0442034 C202.199716,22.2534222 201.957296,22.35803 201.667647,22.35803 C201.377998,22.35803 201.132429,22.2534222 200.930935,22.0442034 C200.72944,21.8349847 200.628694,21.5718801 200.628694,21.254882 C200.628694,20.9378839 200.72944,20.6779494 200.930935,20.4750705 C201.132429,20.2721917 201.377998,20.1707539 201.667647,20.1707539 C201.957296,20.1707539 202.199716,20.2721917 202.394914,20.4750705 Z M205.332316,12.1253817 L207.089091,12.1253817 L207.089091,22.1868518 L205.332316,22.1868518 L205.332316,12.1253817 Z M206.985196,8.43554204 C207.192987,8.65110079 207.296882,8.92371504 207.296882,9.2533931 C207.296882,9.58307117 207.192987,9.85568542 206.985196,10.0712442 C206.777404,10.2868029 206.516094,10.3945806 206.201259,10.3945806 C205.886423,10.3945806 205.625113,10.2868029 205.417322,10.0712442 C205.20953,9.85568542 205.105636,9.58307117 205.105636,9.2533931 C205.105636,8.92371504 205.20953,8.65110079 205.417322,8.43554204 C205.625113,8.21998328 205.886423,8.11220557 206.201259,8.11220557 C206.516094,8.11220557 206.777404,8.21998328 206.985196,8.43554204 Z M218.819812,13.104901 C219.487264,13.795957 219.820985,14.750107 219.820985,15.9673798 L219.820985,22.1868518 L218.06421,22.1868518 L218.06421,16.4428746 C218.06421,15.5933196 217.828087,14.9308035 217.355833,14.4553063 C216.88358,13.9798091 216.231879,13.7420641 215.400713,13.7420641 C214.506579,13.754744 213.77932,14.0432079 213.218912,14.6074646 C212.658504,15.1717213 212.340525,15.903976 212.264965,16.8042506 L212.264965,22.1868518 L210.50819,22.1868518 L210.50819,12.1253817 L212.264965,12.1253817 L212.264965,14.2555985 C212.932416,12.822767 214.198037,12.0936822 216.061865,12.0683224 C217.233054,12.0683224 218.152361,12.4138451 218.819812,13.104901 Z" id=".in"></path>
            </g>
        </g>
    </g>
</svg>